<?xml version="1.0" encoding="UTF-8" standalone="no"?> <svg width="64" height="64" viewBox="0 0 64 64" fill="none" xmlns="http://www.w3.org/2000/svg">
<path d="M12.21 31.2302C12.2761 31.5697 12.4248 31.8877 12.6427 32.1562C12.8607 32.4248 13.1414 32.6356 13.46 32.7702L51.77 47.6502C53.0465 48.1339 54.4597 48.1113 55.7202 47.587C56.9806 47.0628 57.993 46.0765 58.55 44.8302C58.8347 44.1505 58.9802 43.4207 58.9778 42.6838C58.9755 41.9469 58.8253 41.2179 58.5363 40.5401C58.2473 39.8623 57.8252 39.2493 57.2951 38.7374C56.7649 38.2256 56.1375 37.8253 55.45 37.5602L48.21 34.7502L37.21 12.7502C36.995 12.2954 36.6165 11.9384 36.15 11.7502L30.56 9.60021C30.2073 9.46247 29.8227 9.42767 29.451 9.49988C29.0793 9.57208 28.7358 9.74831 28.4603 10.0081C28.1848 10.2678 27.9887 10.6005 27.8949 10.9673C27.801 11.3341 27.8132 11.72 27.93 12.0802L33.37 29.0002L21.69 24.4502L17.41 12.2402C17.3184 11.9601 17.166 11.7037 16.9637 11.4893C16.7614 11.2749 16.5143 11.1079 16.24 11.0002L11.52 9.20021C11.1906 9.07351 10.8335 9.03624 10.485 9.09218C10.1365 9.14812 9.80905 9.29528 9.53584 9.51872C9.26263 9.74216 9.05342 10.0339 8.92945 10.3644C8.80547 10.6948 8.77115 11.0522 8.82997 11.4002L12.21 31.2302Z" fill="black"/>
<path d="M60 50.9302H4C3.46957 50.9302 2.96086 51.1409 2.58579 51.516C2.21071 51.891 2 52.3997 2 52.9302C2 53.4606 2.21071 53.9693 2.58579 54.3444C2.96086 54.7195 3.46957 54.9302 4 54.9302H60C60.5304 54.9302 61.0391 54.7195 61.4142 54.3444C61.7893 53.9693 62 53.4606 62 52.9302C62 52.3997 61.7893 51.891 61.4142 51.516C61.0391 51.1409 60.5304 50.9302 60 50.9302Z" fill="black"/>
</svg>
